<mxfile host="app.diagrams.net" modified="2023-11-02T01:47:35.042Z" agent="Mozilla/5.0 (Windows NT 10.0; Win64; x64; rv:109.0) Gecko/20100101 Firefox/118.0" version="22.0.8" etag="QvubG76CXKjT4B_z57M4" type="github">
  <diagram name="Page-1" id="eRq0WN87snTPc0bdvbjk">
    <mxGraphModel>
      <root>
        <mxCell id="0" />
        <mxCell id="1" parent="0" />
      </root>
    </mxGraphModel>
  </diagram>
</mxfile>
